# xmcd
#
# Track frame offsets: 
#        150
#        4007
#        14476
#        23370
#        37175
#        59813
#        83083
#        103033
#        125533
#        143335
#        164214
#        181173
#        200972
#        224672
#
# Disc length: 3279 seconds
#
# Revision: 1
# Processed by: cddbd v1.5.2PL0 Copyright (c) Steve Scherf et al.
# Submitted via: ExactAudioCopyFreeDBPlugin 1.0
#
DISCID=ca0ccd0e
DTITLE=Pohjolan Molli - Kelopuu
DYEAR=2011
DGENRE=Hip-Hop
TTITLE0=Tuupakit
TTITLE1=Valoa Kannossa
TTITLE2=Puutoksinen
TTITLE3=Ulkokuoreton
TTITLE4=Soluihminen
TTITLE5=Haliwoodin Lehtiä
TTITLE6=Liian Puutunut
TTITLE7=Melalkoholista (feat. Asa)
TTITLE8=Ostakaaosta
TTITLE9=Mustavalkoisena Kukin
TTITLE10=Tuuliviiri Taipuu
TTITLE11=Suojatiellä
TTITLE12=Tähän Maahan Juurtuneena
TTITLE13=Viimeinen Nuotiolaulu
EXTD=
EXTT0=
EXTT1=
EXTT2=
EXTT3=
EXTT4=
EXTT5=
EXTT6=
EXTT7=
EXTT8=
EXTT9=
EXTT10=
EXTT11=
EXTT12=
EXTT13=
PLAYORDER=
